{"title":"Ace Hood Ft. Future &amp; Rick Ross - Bugatti [Explicit] 720p [S","uid":8432287,"size":101091569,"categoryP":"video","categoryS":"music_videos","magnet":"?xt=urn:btih:111942e3cfec98636158beb0edf498dcc97acf44&amp;dn=Ace+Hood+Ft.+Future+%26amp%3B+Rick+Ross+-+Bugatti+%5BExplicit%5D+720p+%5BS&amp;tr=udp%3A%2F%2Ftracker.openbittorrent.com%3A80&amp;tr=udp%3A%2F%2Fopen.demonii.com%3A1337&amp;tr=udp%3A%2F%2Ftracker.coppersurfer.tk%3A6969&amp;tr=udp%3A%2F%2Fexodus.desync.com%3A6969","seeders":1,"leechers":0,"uploader":"Sbyky","files":-1,"time":1367528113,"description":"[IMG]http://www.shotpix.com/images/02207821621014182821.jpg[/IMG]\n\nGeneral\nComplete name                            : Ace Hood Ft. Future &amp; Rick Ross - Bugatti [Explicit] 720p [Sbyky].mp4\nFormat                                   : MPEG-4\nFormat profile                           : Base Media / Version 2\nCodec ID                                 : mp42\nFile size                                : 96.4 MiB\nDuration                                 : 5mn 4s\nOverall bit rate mode                    : Variable\nOverall bit rate                         : 2 654 Kbps\nEncoded date                             : UTC 2013-04-04 02:34:52\nTagged date                              : UTC 2013-04-04 02:34:52\n\nVideo\nID                                       : 1\nFormat                                   : AVC\nFormat/Info                              : Advanced Video Codec\nFormat profile                           : &lt;a class=&quot;__cf_email__&quot; href=&quot;/cdn-cgi/l/email-protection&quot; data-cfemail=&quot;f4bc9d939cb4b8c7dac5&quot;&gt;[email&amp;#160;protected]&lt;/a&gt;&lt;script data-cfhash='f9e31' type=&quot;text/javascript&quot;&gt;\n/* &lt;![CDATA[ */!function(){try{var t=&quot;currentScript&quot;in document?document.currentScript:function(){for(var t=document.getElementsByTagName(&quot;script&quot;),e=t.length;e--;)if(t[e].getAttribute(&quot;data-cfhash&quot;))return t[e]}();if(t&amp;&amp;t.previousSibling){var e,r,n,i,c=t.previousSibling,a=c.getAttribute(&quot;data-cfemail&quot;);if(a){for(e=&quot;&quot;,r=parseInt(a.substr(0,2),16),n=2;a.length-n;n+=2)i=parseInt(a.substr(n,2),16)^r,e+=String.fromCharCode(i);e=document.createTextNode(e),c.parentNode.replaceChild(e,c)}t.parentNode.removeChild(t);}}catch(u){}}()/* ]]&gt; */&lt;/script&gt;\nFormat settings, CABAC                   : Yes\nFormat settings, ReFrames                : 1 frame\nFormat settings, GOP                     : M=1, N=60\nCodec ID                                 : avc1\nCodec ID/Info                            : Advanced Video Coding\nDuration                                 : 5mn 4s\nBit rate                                 : 2 460 Kbps\nMaximum bit rate                         : 6 289 Kbps\nWidth                                    : 1 280 pixels\nHeight                                   : 720 pixels\nDisplay aspect ratio                     : 16:9\nFrame rate mode                          : Constant\nFrame rate                               : 23.976 fps\nColor space                              : YUV\nChroma subsampling                       : 4:2:0\nBit depth                                : 8 bits\nScan type                                : Progressive\nBits/(Pixel*Frame)                       : 0.111\nStream size                              : 89.3 MiB (93%)\nTagged date                              : UTC 2013-04-04 02:34:59\n\nAudio\nID                                       : 2\nFormat                                   : AAC\nFormat/Info                              : Advanced Audio Codec\nFormat profile                           : LC\nCodec ID                                 : 40\nDuration                                 : 5mn 4s\nBit rate mode                            : Variable\nBit rate                                 : 192 Kbps\nMaximum bit rate                         : 203 Kbps\nChannel(s)                               : 2 channels\nChannel positions                        : Front: L R\nSampling rate                            : 44.1 KHz\nCompression mode                         : Lossy\nStream size                              : 6.97 MiB (7%)\nTitle                                    : IsoMedia File Produced by Google, 5-11-2011\nEncoded date                             : UTC 2013-04-04 02:34:57\nTagged date                              : UTC 2013-04-04 02:34:59\n\nShared By Sbyky\n[IMG]http://www.shotpix.com/images/76014917432015785852.gif[/IMG]\n[IMG]http://www.shotpix.com/images/54100788659511547411.gif[/IMG]","torrent":{"xt":"urn:btih:111942e3cfec98636158beb0edf498dcc97acf44","amp;dn":"Ace+Hood+Ft.+Future+%26amp%3B+Rick+Ross+-+Bugatti+%5BExplicit%5D+720p+%5BS","amp;tr":["udp%3A%2F%2Ftracker.openbittorrent.com%3A80","udp%3A%2F%2Fopen.demonii.com%3A1337","udp%3A%2F%2Ftracker.coppersurfer.tk%3A6969","udp%3A%2F%2Fexodus.desync.com%3A6969"],"infoHash":"111942e3cfec98636158beb0edf498dcc97acf44","infoHashBuffer":{"type":"Buffer","data":[17,25,66,227,207,236,152,99,97,88,190,176,237,244,152,220,201,122,207,68]},"announce":[],"urlList":[]}}